<?xml version="1.0" standalone="no"?>
<!DOCTYPE svg PUBLIC "-//W3C//DTD SVG 20010904//EN"
 "http://www.w3.org/TR/2001/REC-SVG-20010904/DTD/svg10.dtd">
<svg version="1.0" xmlns="http://www.w3.org/2000/svg"
 width="1328.000000pt" height="1328.000000pt" viewBox="0 0 1328.000000 1328.000000"
 preserveAspectRatio="xMidYMid meet">
<metadata>
Created by potrace 1.14, written by Peter Selinger 2001-2017
</metadata>
<g transform="translate(0.000000,1328.000000) scale(0.100000,-0.100000)"
fill="#000000" stroke="none">
<path d="M6527 13274 c-1 -1 -99 -5 -217 -8 -118 -4 -233 -9 -255 -11 -22 -2
-88 -6 -147 -10 -59 -3 -115 -8 -125 -9 -10 -2 -63 -7 -118 -11 -55 -4 -106
-8 -115 -10 -8 -2 -53 -6 -100 -10 -47 -4 -94 -9 -104 -11 -11 -2 -40 -6 -65
-9 -25 -3 -62 -7 -81 -10 -19 -3 -56 -7 -83 -9 -26 -3 -50 -7 -55 -9 -4 -3
-37 -8 -75 -11 -37 -4 -73 -9 -80 -11 -6 -2 -30 -7 -52 -10 -22 -3 -65 -10
-95 -15 -30 -5 -75 -12 -100 -15 -24 -4 -47 -8 -50 -10 -3 -1 -25 -6 -50 -9
-51 -7 -84 -13 -108 -20 -9 -3 -35 -8 -57 -11 -71 -12 -79 -14 -150 -29 -80
-17 -121 -26 -150 -31 -64 -13 -214 -49 -237 -57 -21 -8 -111 -83 -99 -83 2 0
-12 -43 -26 -75 -8 -19 -8 -20 -18 -55 -4 -16 -10 -34 -14 -40 -3 -5 -6 -15
-7 -22 -2 -13 -22 -79 -31 -103 -7 -16 -11 -30 -17 -57 -3 -10 -5 -18 -6 -18
-1 0 -3 -8 -5 -18 -2 -10 -7 -26 -11 -35 -9 -20 -8 -18 -17 -65 -5 -21 -17
-65 -28 -99 -11 -34 -22 -75 -25 -92 -3 -16 -7 -32 -9 -36 -2 -3 -6 -17 -9
-31 -3 -13 -7 -33 -10 -44 -18 -79 -48 -214 -52 -235 -3 -14 -7 -33 -10 -42
-5 -16 -9 -35 -19 -88 -3 -14 -7 -36 -10 -50 -6 -28 -12 -60 -20 -110 -3 -19
-8 -42 -10 -50 -2 -8 -7 -33 -10 -55 -3 -23 -8 -52 -10 -65 -3 -14 -8 -45 -10
-70 -3 -25 -8 -52 -10 -60 -2 -8 -7 -39 -10 -69 -4 -30 -9 -63 -11 -75 -2 -12
-7 -46 -10 -76 -3 -30 -7 -68 -9 -85 -2 -16 -7 -59 -10 -95 -4 -36 -8 -76 -10
-89 -2 -13 -7 -69 -10 -125 -4 -56 -8 -114 -10 -131 -19 -150 -24 -722 -11
-1190 9 -340 8 -321 26 -361 15 -34 80 -73 115 -69 29 4 85 15 125 25 19 5 49
12 65 14 48 9 75 15 93 20 9 3 31 8 47 11 17 2 41 7 55 11 14 3 34 7 45 9 28
5 55 12 138 30 12 3 36 8 52 11 42 8 48 9 70 17 11 3 37 8 59 12 21 3 41 7 45
9 3 3 26 7 51 11 25 4 47 8 51 10 3 2 21 7 40 10 28 4 79 15 99 20 3 1 23 5
45 10 56 13 54 12 60 15 3 1 8 3 13 4 20 4 42 25 62 59 24 41 24 63 3 377 -10
143 -10 654 -1 895 16 405 18 461 23 495 2 19 7 69 10 110 3 41 8 86 10 100 2
14 7 45 10 70 3 25 8 52 10 60 2 8 7 35 10 60 4 24 11 52 16 62 5 10 8 18 5
18 -2 0 3 21 11 48 8 26 17 58 19 72 3 13 11 28 17 32 7 4 8 8 2 8 -5 0 -1 7
9 15 11 8 16 15 12 15 -4 0 -1 7 8 15 8 8 19 15 24 15 6 0 12 5 14 10 3 10 21
15 93 25 22 4 51 8 65 10 14 2 45 7 70 10 25 3 58 8 74 11 15 3 49 7 75 10 25
2 60 6 76 9 17 2 59 7 95 10 36 3 72 8 80 10 8 2 56 7 105 11 50 3 97 8 105 9
9 2 65 6 125 10 61 4 126 9 145 10 226 23 1147 23 1370 0 19 -1 82 -6 140 -10
58 -4 121 -8 140 -10 19 -2 71 -6 115 -10 90 -7 126 -10 205 -19 75 -9 125
-15 190 -21 30 -3 65 -8 78 -10 12 -3 47 -8 76 -11 29 -2 64 -7 77 -9 23 -5
59 -10 142 -21 53 -6 154 -22 187 -29 13 -2 40 -7 60 -10 20 -3 47 -8 60 -10
14 -3 39 -7 55 -10 17 -2 41 -7 55 -9 13 -3 42 -8 64 -12 22 -3 43 -7 46 -9 3
-2 21 -6 40 -9 19 -3 46 -8 60 -11 14 -3 39 -8 55 -10 17 -3 37 -8 45 -10 8
-2 27 -7 43 -10 27 -5 50 -10 97 -20 14 -4 34 -8 45 -10 11 -3 31 -7 45 -10
14 -4 36 -8 50 -11 14 -2 32 -7 40 -10 8 -3 26 -8 40 -10 14 -3 43 -10 65 -16
22 -5 50 -12 62 -14 12 -2 34 -9 48 -14 14 -5 25 -6 25 -3 0 4 5 2 12 -5 7 -7
23 -12 36 -12 13 0 31 -4 40 -9 9 -5 31 -11 47 -14 17 -3 42 -10 58 -16 15 -6
27 -8 27 -6 0 3 16 -1 35 -9 19 -8 35 -13 35 -10 0 3 8 0 19 -5 10 -6 33 -13
51 -16 18 -3 41 -10 51 -16 11 -5 19 -7 19 -3 0 3 6 1 13 -5 8 -6 22 -12 33
-14 42 -8 80 -20 92 -30 6 -5 12 -7 12 -3 0 3 16 0 35 -8 20 -9 36 -15 38 -14
7 3 183 -59 189 -67 4 -5 10 -7 13 -3 4 3 18 0 32 -7 15 -8 30 -12 35 -9 4 3
8 0 8 -5 0 -6 3 -10 8 -9 9 2 94 -23 107 -32 12 -9 67 -24 78 -22 4 1 7 -2 7
-6 0 -5 6 -9 13 -9 6 0 46 -13 87 -27 93 -34 104 -38 108 -36 1 0 16 -7 32
-15 17 -9 30 -13 30 -9 0 4 6 2 13 -4 6 -5 35 -17 62 -25 28 -8 67 -22 88 -31
20 -9 37 -13 37 -10 0 4 6 2 13 -3 9 -8 94 -40 127 -48 3 -1 12 -4 20 -8 54
-20 217 -77 240 -82 3 -1 16 -6 30 -12 14 -6 45 -19 70 -28 74 -28 84 -32 112
-45 36 -17 99 -7 128 20 31 28 42 75 35 142 -4 35 -8 65 -10 68 -2 3 -6 30
-10 60 -4 30 -8 57 -10 60 -2 3 -6 29 -10 59 -4 30 -9 63 -11 75 -2 12 -6 35
-9 51 -2 17 -7 41 -9 55 -3 14 -7 43 -11 65 -10 72 -57 316 -71 368 -3 12 -7
31 -9 42 -2 11 -4 20 -5 20 -1 0 -4 11 -7 25 -8 41 -11 55 -14 55 -1 0 -3 9
-4 20 -1 11 -8 40 -15 65 -7 25 -14 53 -16 62 -2 10 -6 27 -9 38 -6 24 -11 49
-26 120 -14 67 -38 130 -50 130 -5 0 -9 5 -9 10 0 6 -9 20 -20 32 -11 12 -20
18 -20 12 0 -5 -4 -4 -8 1 -8 12 -64 39 -74 37 -5 -1 -8 3 -8 9 0 5 -4 8 -9 5
-5 -3 -22 1 -37 9 -16 8 -37 15 -46 15 -9 0 -20 5 -23 10 -4 6 -11 8 -16 5 -5
-4 -9 -1 -9 6 0 7 -3 9 -7 6 -3 -4 -12 -2 -20 4 -7 6 -13 8 -13 4 0 -4 -7 -2
-15 5 -8 7 -15 10 -15 6 0 -4 -13 0 -30 9 -16 9 -30 13 -30 9 0 -4 -7 -1 -15
6 -8 7 -15 9 -15 5 0 -4 -7 -2 -15 5 -8 7 -15 9 -15 4 0 -4 -5 -3 -12 4 -7 7
-18 12 -24 12 -7 0 -25 5 -41 12 -15 6 -30 12 -33 13 -3 1 -20 6 -38 10 -18 4
-35 12 -38 16 -3 5 -10 7 -15 3 -5 -3 -16 0 -24 6 -8 7 -15 9 -15 5 0 -4 -6
-3 -12 3 -7 5 -29 13 -48 17 -19 4 -41 12 -47 17 -7 6 -13 7 -13 3 0 -4 -7 -2
-15 5 -8 7 -15 9 -15 5 0 -4 -7 -1 -17 6 -9 8 -18 13 -20 11 -6 -6 -67 10 -80
20 -7 6 -13 7 -13 3 0 -4 -7 -1 -17 6 -9 8 -18 13 -20 11 -6 -6 -67 10 -79 20
-7 5 -16 8 -20 7 -5 -1 -12 0 -16 1 -5 1 -11 3 -15 4 -5 2 -28 8 -53 16 -25 7
-51 15 -57 17 -7 2 -19 5 -25 6 -7 2 -26 7 -43 11 -16 4 -37 10 -45 13 -8 3
-24 8 -35 10 -11 2 -31 8 -45 13 -14 5 -38 12 -55 15 -32 6 -57 12 -65 15 -3
1 -9 3 -15 5 -5 1 -12 3 -15 4 -3 2 -12 4 -20 6 -8 1 -35 8 -60 15 -25 7 -52
14 -60 15 -14 3 -89 20 -132 31 -10 2 -28 7 -40 10 -13 3 -41 10 -63 14 -22 5
-51 12 -65 15 -14 3 -34 8 -45 10 -20 5 -42 10 -87 20 -13 3 -34 7 -48 10 -14
3 -36 7 -50 11 -14 3 -45 10 -70 15 -25 4 -58 11 -75 14 -16 3 -37 8 -45 10
-8 3 -32 7 -54 11 -21 3 -48 8 -60 10 -11 2 -32 6 -46 9 -14 3 -36 7 -50 10
-14 3 -47 8 -75 11 -27 4 -53 8 -58 11 -4 2 -20 6 -35 9 -15 2 -40 6 -57 9
-16 3 -48 7 -70 10 -22 3 -51 7 -65 10 -14 3 -45 8 -70 11 -25 3 -52 7 -60 9
-8 2 -39 7 -69 10 -30 4 -63 8 -74 11 -10 2 -45 6 -76 9 -31 3 -67 8 -81 10
-14 3 -52 7 -85 10 -33 4 -71 8 -85 10 -62 9 -182 21 -310 30 -52 4 -104 9
-114 11 -11 2 -67 6 -125 10 -58 3 -124 8 -146 9 -147 11 -967 27 -978 19z"/>
<path d="M2240 12273 c-8 -3 -22 -7 -30 -10 -8 -4 -17 -7 -20 -8 -3 0 -34 -16
-70 -35 -36 -19 -67 -34 -70 -35 -3 0 -23 -10 -45 -22 -22 -11 -43 -20 -46
-19 -4 0 -17 -8 -29 -19 -12 -11 -24 -19 -26 -17 -3 2 -61 -24 -129 -57 -68
-34 -128 -61 -133 -61 -5 0 -15 -7 -22 -15 -7 -9 -15 -13 -18 -11 -3 3 -18 -4
-33 -15 -16 -11 -29 -17 -29 -13 0 4 -8 0 -17 -9 -10 -8 -30 -19 -45 -22 -16
-4 -28 -11 -28 -17 0 -5 -4 -6 -10 -3 -5 3 -10 1 -10 -4 0 -6 -3 -10 -7 -9 -5
2 -74 -30 -156 -70 -110 -55 -151 -80 -161 -100 -9 -19 -16 -90 -20 -227 -7
-198 -10 -259 -21 -405 -3 -41 -8 -124 -10 -185 -3 -60 -8 -137 -10 -170 -24
-324 -24 -1526 0 -1980 1 -33 6 -132 10 -220 3 -88 8 -185 10 -215 2 -30 6
-116 10 -190 7 -160 12 -211 20 -218 10 -11 35 -10 35 1 0 5 2 8 5 5 3 -3 56
19 118 50 62 31 115 55 120 54 4 -1 7 3 7 8 0 5 3 9 8 8 4 -1 42 15 84 35 43
20 82 37 88 37 5 0 10 4 10 9 0 5 14 12 30 16 17 4 30 11 30 16 0 5 5 9 11 9
5 0 54 21 107 47 53 26 103 48 111 49 8 2 17 7 20 12 6 8 32 20 49 22 4 1 14
8 23 16 9 8 19 11 22 7 4 -3 7 -1 7 6 0 7 4 10 9 7 5 -3 14 1 21 9 7 8 16 12
21 9 5 -3 9 0 9 7 0 7 3 10 6 6 3 -3 50 17 104 44 55 27 104 49 110 49 5 0 10
5 10 12 0 6 3 8 7 5 3 -4 15 0 25 10 10 9 18 12 18 8 0 -4 11 5 25 21 42 48
47 89 31 244 -21 204 -29 1561 -14 2315 4 193 10 526 14 742 l7 391 -23 36
c-30 49 -76 72 -120 59z"/>
<path d="M6108 10795 c-2 -2 -66 -6 -143 -9 -76 -4 -148 -9 -160 -11 -11 -2
-53 -7 -93 -10 -91 -7 -114 -16 -139 -52 -15 -21 -19 -42 -18 -83 2 -30 6
-149 9 -265 7 -214 12 -341 21 -520 2 -55 7 -163 11 -240 3 -77 8 -153 9 -170
2 -16 3 -38 4 -47 1 -9 8 -24 17 -32 8 -9 13 -16 10 -16 -3 0 5 -11 18 -23 24
-24 25 -24 212 -20 513 11 1140 5 1304 -12 19 -2 81 -6 138 -10 57 -3 117 -8
135 -10 17 -2 66 -7 107 -11 41 -3 83 -8 92 -9 9 -2 48 -7 85 -10 37 -4 79 -8
93 -10 14 -2 45 -7 70 -10 25 -3 56 -8 70 -10 73 -10 118 -17 145 -21 17 -3
44 -7 60 -10 17 -2 41 -6 55 -9 14 -3 43 -8 65 -11 72 -11 131 -21 195 -34 53
-11 94 -19 135 -26 17 -3 68 -14 115 -24 47 -11 96 -22 110 -24 14 -3 66 -15
115 -27 50 -11 99 -23 111 -25 11 -2 65 -15 120 -29 54 -15 110 -28 123 -31
14 -3 28 -7 33 -10 5 -3 21 -8 36 -10 15 -3 81 -21 147 -40 66 -20 129 -37
140 -40 11 -2 31 -8 45 -13 19 -7 177 -57 210 -66 3 -1 23 -7 45 -13 22 -6 45
-12 50 -13 6 0 16 -5 23 -11 6 -6 12 -7 12 -3 0 4 6 3 13 -3 7 -6 24 -13 39
-16 14 -2 36 -9 47 -16 12 -6 21 -8 21 -4 0 3 6 2 13 -3 6 -6 26 -14 42 -18
44 -12 45 -12 50 -15 3 -1 8 -3 13 -5 7 -2 12 -4 57 -21 11 -4 23 -8 28 -9 4
-2 8 -3 10 -5 1 -1 9 -3 17 -5 8 -2 53 -18 100 -35 96 -35 128 -57 165 -114
22 -34 26 -47 28 -101 2 -52 -15 -193 -37 -305 -2 -14 -7 -45 -10 -70 -3 -25
-8 -56 -11 -70 -3 -14 -8 -45 -11 -69 -3 -25 -7 -47 -9 -51 -2 -3 -6 -24 -9
-46 -4 -22 -8 -49 -10 -59 -22 -100 -47 -225 -51 -245 -3 -14 -9 -40 -14 -58
-5 -18 -10 -36 -11 -40 0 -4 -5 -23 -10 -42 -5 -19 -12 -52 -15 -73 -4 -22
-13 -56 -20 -78 -8 -21 -12 -39 -9 -39 2 0 0 -8 -5 -17 -5 -10 -11 -31 -14
-48 -3 -16 -22 -86 -42 -155 -20 -69 -38 -132 -40 -140 -2 -8 -4 -16 -5 -17
-2 -2 -3 -6 -4 -10 -1 -5 -9 -30 -19 -58 -9 -27 -17 -54 -18 -60 -1 -5 -10
-31 -20 -57 -10 -27 -16 -48 -13 -48 4 0 2 -6 -3 -12 -8 -10 -40 -95 -48 -128
-1 -3 -5 -14 -10 -25 -17 -42 -47 -120 -50 -130 -1 -5 -8 -26 -16 -45 -7 -19
-12 -38 -11 -42 1 -5 -3 -8 -10 -8 -6 0 -8 -3 -5 -7 4 -3 2 -12 -4 -20 -6 -7
-8 -13 -3 -13 5 0 5 -4 -1 -8 -9 -7 -73 -153 -79 -180 -1 -7 -8 -18 -14 -24
-7 -7 -12 -19 -12 -28 0 -9 -3 -20 -7 -24 -4 -3 -8 -14 -9 -24 -2 -9 -8 -18
-13 -20 -6 -2 -11 -10 -11 -17 0 -8 -9 -30 -21 -49 -11 -20 -22 -41 -23 -48
-1 -7 -13 -33 -26 -58 -13 -25 -25 -47 -25 -50 0 -3 -12 -25 -25 -50 -13 -25
-23 -48 -22 -52 1 -5 -3 -8 -9 -8 -5 0 -8 -4 -5 -9 3 -5 -1 -14 -9 -21 -8 -7
-12 -16 -9 -21 3 -5 0 -9 -6 -9 -6 0 -8 -4 -5 -10 3 -5 2 -10 -3 -10 -6 0 -18
-20 -29 -45 -10 -25 -21 -45 -25 -45 -5 0 -8 -4 -8 -10 0 -5 -22 -47 -49 -94
-27 -47 -46 -87 -43 -90 3 -4 0 -6 -7 -6 -7 0 -9 -4 -6 -10 3 -5 2 -10 -3 -10
-8 0 -36 -50 -32 -59 1 -2 -2 -7 -7 -10 -5 -3 -29 -40 -53 -81 -24 -41 -61
-101 -82 -132 -21 -32 -35 -58 -31 -58 4 0 3 -4 -2 -8 -14 -10 -65 -90 -65
-102 0 -5 -5 -10 -10 -10 -6 0 -14 -8 -18 -18 -10 -24 -124 -195 -137 -204 -6
-5 -6 -8 0 -8 5 0 -1 -7 -13 -16 -12 -8 -22 -22 -22 -30 0 -8 -5 -14 -11 -14
-5 0 -8 -4 -5 -9 4 -5 3 -11 -2 -13 -8 -3 -60 -70 -92 -118 -8 -12 -21 -28
-27 -36 -7 -7 -13 -15 -13 -19 0 -3 -11 -17 -25 -31 -14 -14 -25 -28 -25 -33
0 -4 -14 -22 -31 -39 -17 -18 -28 -32 -25 -32 4 0 -5 -11 -20 -25 -15 -14 -24
-25 -21 -25 6 0 -32 -45 -81 -96 -13 -13 -20 -24 -17 -24 3 0 -4 -11 -17 -24
-13 -13 -41 -45 -63 -71 -22 -25 -60 -67 -85 -93 -25 -25 -39 -42 -31 -38 7 5
-28 -33 -78 -83 -51 -50 -90 -91 -87 -91 2 0 -19 -24 -47 -53 -29 -29 -53 -52
-55 -51 -3 1 -37 -31 -214 -201 -26 -25 -50 -45 -53 -45 -4 0 -22 -16 -41 -35
-19 -20 -34 -33 -34 -29 0 3 -13 -7 -29 -23 -16 -15 -44 -39 -62 -53 -18 -14
-43 -35 -56 -48 -13 -13 -23 -20 -23 -16 0 4 -14 -7 -30 -25 -17 -17 -33 -31
-37 -31 -3 0 -13 -7 -22 -15 -44 -39 -59 -51 -83 -64 -15 -8 -25 -18 -23 -22
3 -4 -4 -10 -15 -14 -11 -3 -20 -11 -20 -16 0 -5 -6 -9 -12 -9 -7 0 -30 -16
-51 -35 -21 -19 -42 -35 -47 -35 -5 0 -13 -6 -17 -13 -4 -7 -20 -20 -34 -29
-14 -9 -34 -24 -43 -33 -9 -9 -16 -14 -16 -11 0 6 -6 1 -64 -51 -13 -12 -26
-19 -29 -16 -3 3 -12 -4 -19 -16 -7 -12 -18 -21 -25 -21 -7 0 -17 -8 -22 -17
-6 -10 -11 -14 -11 -9 0 6 -9 1 -20 -10 -27 -27 -40 -37 -88 -69 -23 -15 -42
-32 -42 -36 0 -5 -7 -9 -15 -9 -9 0 -18 -7 -21 -15 -4 -8 -12 -15 -20 -15 -8
0 -14 -4 -14 -10 0 -5 -7 -10 -15 -10 -8 0 -20 -9 -27 -20 -7 -11 -19 -20 -26
-20 -7 0 -15 -7 -18 -15 -4 -8 -10 -15 -16 -15 -5 0 -15 -6 -22 -12 -7 -7 -25
-22 -41 -33 -45 -33 -90 -70 -93 -77 -2 -5 -10 -8 -17 -8 -8 0 -19 -8 -24 -17
-6 -10 -11 -14 -11 -9 0 5 -7 2 -16 -5 -33 -28 -122 -30 -179 -4 -22 10 -43
17 -47 17 -5 -1 -8 3 -8 10 0 6 -3 9 -6 5 -3 -3 -11 -1 -18 4 -53 45 -72 59
-78 59 -4 0 -16 10 -28 22 -11 12 -20 18 -20 14 0 -4 -10 3 -22 14 -13 12 -35
28 -50 36 -16 8 -28 19 -28 24 0 6 -7 10 -15 10 -8 0 -15 5 -15 10 0 6 -7 10
-15 10 -8 0 -15 5 -15 10 0 6 -8 14 -17 17 -9 4 -24 14 -33 22 -30 28 -60 51
-68 51 -4 0 -23 16 -42 35 -19 19 -38 35 -42 35 -5 0 -19 10 -32 22 -13 13
-33 30 -46 38 -13 8 -33 25 -46 38 -13 12 -28 22 -34 22 -6 0 -8 5 -5 10 3 6
2 10 -3 10 -5 0 -18 8 -30 17 -11 10 -40 34 -63 53 -23 19 -50 42 -61 50 -11
8 -37 32 -58 53 -21 20 -40 37 -42 37 -8 0 -81 66 -154 139 -35 35 -64 61 -64
58 0 -4 -97 91 -215 209 -118 118 -215 220 -215 226 0 6 -3 8 -6 5 -4 -3 -16
6 -28 21 -11 15 -41 49 -66 76 -93 101 -100 109 -100 118 0 5 -4 6 -10 3 -5
-3 -10 -1 -10 4 0 6 -15 26 -34 46 -19 19 -32 35 -30 35 3 0 -5 11 -18 24 -13
13 -36 40 -53 60 -16 20 -39 47 -50 61 -11 13 -33 40 -50 61 -16 20 -38 45
-47 55 -10 11 -15 19 -10 19 4 0 0 6 -8 13 -9 7 -29 30 -45 52 -17 22 -34 45
-40 51 -5 6 -21 27 -35 47 -14 20 -29 37 -33 37 -5 0 -5 4 -2 10 3 5 -3 15
-15 22 -11 7 -20 19 -20 26 0 7 -7 15 -15 18 -8 4 -15 11 -15 18 0 6 -10 22
-23 36 -13 14 -24 30 -26 35 -1 6 -13 22 -26 37 -13 14 -21 29 -18 32 4 3 1 6
-5 6 -7 0 -12 6 -12 14 0 8 -4 16 -8 18 -8 3 -72 96 -72 104 0 3 -6 12 -13 19
-29 33 -37 45 -37 55 0 5 -5 10 -11 10 -5 0 -8 4 -4 9 3 5 1 12 -4 16 -14 8
-68 90 -76 114 -3 12 -11 21 -16 21 -5 0 -9 5 -9 11 0 6 -11 25 -24 42 -14 18
-24 34 -23 37 1 7 -36 64 -48 72 -5 4 -6 8 -1 8 5 0 3 8 -5 18 -8 9 -24 34
-34 55 -11 20 -24 37 -29 37 -5 0 -7 3 -3 6 6 6 -36 78 -59 101 -31 32 -100
37 -131 11 -7 -6 -13 -7 -13 -4 0 4 -13 -2 -30 -14 -16 -12 -30 -19 -30 -16 0
4 -18 -5 -39 -18 -21 -14 -42 -22 -45 -19 -3 4 -6 1 -6 -5 0 -7 -3 -11 -7 -10
-5 1 -52 -19 -105 -45 -54 -26 -101 -47 -106 -47 -5 0 -15 -7 -22 -15 -7 -8
-16 -12 -21 -9 -5 3 -9 0 -9 -5 0 -6 -9 -11 -20 -11 -11 0 -20 -4 -20 -8 0 -5
-18 -15 -40 -22 -22 -7 -40 -17 -40 -22 0 -4 -7 -8 -15 -8 -9 0 -48 -17 -88
-37 -39 -20 -74 -37 -77 -38 -3 -1 -29 -13 -57 -28 -29 -15 -54 -27 -55 -27
-2 1 -39 -17 -83 -38 -44 -22 -84 -40 -90 -41 -5 -1 -17 -9 -26 -17 -9 -8 -19
-11 -22 -7 -4 3 -7 1 -7 -5 0 -7 -3 -12 -7 -11 -17 2 -53 -14 -53 -24 0 -6 -3
-7 -6 -4 -8 8 -64 -55 -58 -64 2 -4 0 -10 -6 -14 -21 -13 -8 -66 36 -152 26
-48 52 -91 58 -95 6 -4 7 -8 2 -8 -5 0 -2 -8 7 -18 10 -10 14 -22 10 -25 -3
-4 -1 -7 5 -7 7 0 12 -6 12 -14 0 -8 6 -21 13 -28 7 -7 15 -17 17 -23 9 -28
24 -55 32 -55 5 0 7 -4 3 -9 -3 -5 0 -15 7 -23 7 -7 24 -35 38 -61 13 -26 28
-47 31 -47 4 0 10 -11 13 -25 4 -14 11 -25 17 -25 6 0 8 -4 5 -8 -3 -5 4 -19
15 -30 11 -12 17 -22 14 -22 -3 0 11 -22 30 -50 19 -27 32 -50 28 -50 -5 0 -3
-4 2 -8 15 -11 55 -70 55 -81 0 -6 6 -14 14 -18 8 -4 16 -15 18 -23 2 -8 8
-20 13 -27 25 -31 31 -40 44 -65 8 -16 18 -28 23 -28 4 0 8 -7 8 -15 0 -9 7
-18 15 -21 8 -4 13 -10 10 -14 -3 -4 2 -11 11 -14 9 -4 14 -9 11 -12 -3 -4 -1
-12 6 -20 29 -32 37 -44 32 -44 -6 0 6 -16 37 -51 10 -10 15 -19 12 -19 -3 0
1 -6 8 -14 7 -8 24 -31 38 -51 14 -21 33 -46 43 -56 9 -10 17 -22 17 -25 0 -6
48 -71 68 -92 6 -7 12 -17 12 -20 0 -4 12 -21 27 -38 16 -17 41 -49 57 -72 16
-23 33 -42 37 -42 5 0 9 -7 9 -15 0 -7 8 -19 18 -24 9 -6 14 -11 10 -11 -6 0
26 -41 65 -81 9 -11 17 -22 17 -25 0 -5 24 -33 72 -85 10 -11 16 -19 13 -19
-3 0 8 -14 23 -31 15 -16 41 -45 57 -64 17 -18 44 -50 60 -70 17 -20 42 -50
58 -67 15 -17 27 -34 27 -40 0 -5 4 -6 10 -3 6 3 10 1 10 -5 0 -6 20 -31 45
-56 25 -24 45 -47 45 -50 0 -4 20 -26 45 -51 25 -24 45 -48 45 -54 0 -6 5 -7
10 -4 6 3 10 -1 10 -10 0 -9 4 -13 10 -10 6 3 10 1 10 -4 0 -14 375 -390 413
-414 15 -10 25 -22 22 -27 -4 -6 -2 -10 4 -10 6 0 31 -20 56 -45 25 -25 45
-43 45 -41 0 3 20 -14 44 -37 76 -74 136 -128 136 -123 0 2 15 -10 34 -27 18
-18 50 -45 71 -62 20 -16 50 -43 66 -58 16 -15 29 -25 29 -22 0 3 8 -3 18 -12
10 -10 38 -34 62 -53 24 -19 52 -43 62 -52 10 -10 18 -16 18 -13 0 3 10 -4 22
-16 13 -11 34 -28 48 -37 14 -9 29 -22 33 -29 4 -7 12 -13 17 -13 6 0 18 -8
28 -18 10 -9 29 -24 42 -32 12 -8 28 -20 34 -25 6 -6 27 -22 46 -35 19 -13 38
-29 42 -35 4 -5 8 -7 8 -3 0 4 14 -6 32 -22 17 -16 35 -27 40 -24 4 3 8 2 8
-3 0 -4 17 -19 38 -32 20 -14 47 -34 60 -45 12 -11 22 -16 22 -12 0 4 6 2 13
-4 50 -42 73 -60 96 -72 14 -7 28 -15 31 -18 15 -15 71 -50 80 -50 5 0 10 -5
10 -11 0 -5 5 -7 10 -4 6 3 10 2 10 -3 0 -5 12 -15 28 -23 15 -8 36 -22 46
-31 11 -10 36 -26 57 -36 21 -11 36 -22 32 -26 -3 -3 -1 -6 5 -6 13 0 175
-101 180 -112 2 -5 12 -8 23 -8 10 0 19 -4 19 -10 0 -5 7 -10 15 -10 8 0 15
-4 15 -9 0 -5 14 -14 30 -21 17 -7 30 -17 30 -22 0 -5 4 -6 10 -3 6 3 10 2 10
-2 0 -5 15 -17 33 -28 17 -10 50 -30 72 -43 22 -14 41 -25 43 -23 1 1 12 -8
24 -19 12 -11 28 -20 35 -20 7 0 13 -4 13 -8 0 -15 104 -62 138 -62 34 0 134
37 140 52 2 4 12 8 23 8 10 0 19 4 19 8 0 4 23 16 50 27 28 11 50 22 50 25 0
4 16 12 35 20 19 8 35 18 35 22 0 5 5 6 10 3 6 -3 10 -1 10 6 0 7 3 9 7 6 3
-4 15 0 25 10 10 9 18 13 18 9 0 -3 18 5 40 19 22 14 43 25 47 25 5 0 19 9 33
20 14 11 33 20 42 20 9 0 21 6 25 13 4 7 23 19 41 26 17 8 32 18 32 23 0 5 4
7 8 4 5 -3 20 3 33 12 36 25 82 52 102 58 9 4 17 11 17 16 0 5 5 6 10 3 6 -3
10 -1 10 4 0 6 7 11 15 11 8 0 15 5 15 11 0 5 4 8 8 5 5 -3 18 2 28 12 11 9
37 26 59 37 21 11 43 25 49 30 6 6 33 21 59 35 26 13 47 28 47 32 0 5 5 8 10
8 12 0 124 72 128 83 2 4 8 5 12 2 5 -3 21 6 37 20 47 42 51 44 57 38 3 -4 6
-1 6 5 0 7 5 12 11 12 7 0 18 8 26 17 9 11 11 12 7 3 -4 -8 5 -3 21 12 15 16
34 28 41 28 8 0 14 5 14 10 0 6 5 10 10 10 6 0 16 5 23 10 7 6 53 39 102 74
50 35 97 71 107 79 9 8 26 18 37 22 12 3 19 11 16 16 -4 5 1 9 10 9 8 0 18 6
21 14 3 8 17 17 30 20 14 4 22 11 19 16 -3 5 3 11 14 15 10 3 30 16 43 28 13
12 37 31 52 42 16 11 33 25 40 30 6 6 34 28 61 50 28 21 58 48 68 59 9 10 17
16 17 12 0 -4 16 9 35 28 19 20 35 33 35 30 0 -3 16 11 35 30 19 20 35 34 35
31 0 -3 18 11 39 32 22 21 63 58 91 83 154 133 750 725 750 745 0 2 15 19 33
38 17 18 52 57 77 86 25 29 58 66 73 82 16 16 26 29 24 29 -3 0 10 17 29 38
65 71 75 82 68 82 -3 0 8 13 25 29 17 16 31 32 31 35 0 7 36 51 64 77 11 11
16 19 12 19 -4 0 5 11 20 25 15 14 24 25 21 25 -6 0 11 23 38 54 10 10 59 75
97 127 52 73 99 135 108 146 5 7 10 17 10 23 0 5 4 10 8 10 5 0 15 12 23 28
15 29 17 33 54 77 14 17 25 35 25 41 0 7 7 14 15 18 8 3 15 10 15 16 0 6 11
26 25 44 14 18 25 38 25 44 0 7 5 12 10 12 6 0 10 6 10 13 0 8 9 22 20 32 11
10 17 22 14 26 -3 5 -1 9 4 9 5 0 17 17 28 37 10 21 27 46 36 56 9 11 22 32
28 48 7 16 17 29 22 29 5 0 6 5 3 10 -3 5 -1 10 6 10 7 0 10 3 6 6 -3 3 1 13
9 22 8 10 14 21 13 26 0 5 3 12 8 15 12 8 73 109 73 121 0 6 5 10 12 10 6 0 8
3 5 7 -4 3 0 15 10 25 9 10 13 18 9 18 -4 0 2 10 14 22 11 12 20 30 20 39 0
10 3 19 8 21 4 2 23 32 41 68 19 36 37 67 40 70 4 3 17 30 31 60 14 30 27 57
30 60 10 10 64 125 62 133 -1 4 2 7 8 7 5 0 10 4 10 9 0 5 21 54 47 108 26 54
48 100 48 103 1 3 11 24 23 46 11 23 18 44 15 48 -4 3 -1 6 5 6 7 0 12 5 12
11 0 5 12 36 26 67 15 31 27 63 27 70 0 6 4 12 8 12 6 0 18 35 20 57 0 5 7 15
14 23 7 8 14 17 14 20 0 9 39 113 66 175 17 39 39 98 41 108 1 4 3 9 4 12 1 3
3 8 4 13 1 4 7 17 14 30 7 12 10 22 6 22 -3 0 -1 6 5 13 6 8 8 17 4 20 -3 4 0
7 7 7 7 0 10 3 7 7 -4 3 -2 12 4 20 6 7 9 13 6 13 -3 0 0 12 8 27 8 15 12 30
9 35 -3 4 -1 8 4 8 5 0 9 6 10 13 0 6 28 93 62 192 33 99 62 189 65 200 2 11
13 47 23 80 17 51 38 121 47 160 1 6 5 17 8 25 4 8 9 26 11 40 3 14 18 73 35
133 16 59 27 107 24 107 -3 0 0 7 7 15 7 8 10 15 7 15 -3 0 -1 16 5 36 10 37
16 62 23 99 2 11 11 52 20 90 9 39 18 79 21 90 3 18 26 127 39 195 3 14 8 40
11 59 3 18 8 43 10 55 9 43 24 134 30 171 2 17 5 39 8 50 6 30 16 96 20 130 4
30 15 108 21 155 2 14 7 48 10 75 3 28 8 64 10 80 2 17 7 62 11 100 3 39 8 84
10 100 2 17 6 64 9 105 3 41 8 91 12 110 8 50 16 1036 9 1066 -8 30 -60 84
-81 84 -8 0 -15 5 -15 11 0 5 -4 7 -10 4 -5 -3 -10 -1 -10 4 0 6 -4 11 -9 11
-5 0 -49 19 -98 42 -48 23 -91 42 -95 43 -5 2 -11 4 -15 5 -5 1 -11 2 -15 1
-5 0 -8 4 -8 10 0 5 -4 7 -10 4 -5 -3 -10 -1 -10 4 0 6 -4 11 -9 11 -5 0 -22
5 -38 12 -15 6 -30 12 -33 13 -3 1 -23 10 -45 20 -22 10 -43 18 -47 17 -5 -1
-8 3 -8 8 0 5 -3 9 -7 9 -5 -1 -11 0 -15 1 -5 1 -11 3 -15 4 -5 1 -23 10 -40
19 -18 10 -35 17 -38 17 -3 0 -19 7 -35 15 -17 9 -30 13 -30 9 0 -4 -6 -2 -12
4 -7 5 -44 22 -83 37 -38 15 -85 34 -104 42 -18 8 -39 16 -46 17 -7 1 -20 7
-28 14 -8 7 -19 12 -23 10 -5 -1 -19 3 -31 10 -13 7 -23 10 -23 7 0 -3 -12 3
-27 12 -15 10 -28 17 -30 16 -4 -3 -22 3 -103 34 -35 14 -69 26 -75 28 -5 1
-23 8 -40 14 -16 7 -37 14 -45 16 -8 2 -17 4 -20 5 -3 1 -8 2 -12 1 -5 0 -8 4
-8 10 0 6 -6 9 -14 6 -7 -3 -17 -2 -22 3 -11 9 -89 35 -90 29 0 -2 -7 1 -15 8
-12 9 -48 22 -114 39 -5 1 -26 8 -45 15 -19 7 -42 14 -50 17 -8 3 -17 6 -20 7
-3 1 -12 4 -20 8 -22 9 -245 77 -266 82 -11 2 -38 10 -62 19 -23 8 -43 15 -45
14 -1 -1 -18 4 -37 9 -19 6 -60 18 -90 26 -30 9 -86 25 -125 36 -38 11 -81 23
-95 25 -14 3 -34 7 -45 10 -172 45 -255 66 -278 70 -16 3 -43 10 -60 15 -18 6
-43 12 -57 15 -14 2 -36 7 -50 10 -14 3 -36 8 -50 11 -14 2 -47 9 -75 15 -27
6 -61 13 -75 15 -14 3 -36 7 -50 10 -14 3 -36 8 -50 11 -14 2 -45 9 -70 14
-63 13 -217 41 -260 46 -19 2 -46 7 -60 9 -14 3 -41 8 -60 11 -19 2 -46 7 -60
9 -14 3 -45 7 -70 10 -25 3 -56 7 -69 10 -14 2 -45 7 -70 10 -25 3 -62 7 -81
10 -19 2 -57 7 -85 10 -27 3 -61 8 -75 10 -14 2 -54 7 -90 10 -36 3 -83 8
-105 10 -22 2 -69 7 -105 10 -36 3 -90 7 -120 10 -63 6 -153 12 -290 20 -52 3
-133 8 -180 11 -87 5 -957 13 -962 9z"/>
<path d="M6109 8276 c-2 -2 -76 -7 -164 -10 -88 -4 -178 -9 -200 -11 -22 -2
-78 -6 -125 -10 -47 -3 -101 -7 -120 -10 -19 -2 -64 -6 -100 -10 -62 -5 -117
-12 -170 -20 -14 -2 -50 -7 -80 -10 -30 -3 -66 -8 -80 -10 -14 -2 -49 -7 -79
-10 -30 -4 -63 -9 -75 -11 -47 -9 -83 -15 -116 -19 -19 -2 -46 -7 -60 -10 -32
-7 -65 -13 -114 -20 -21 -4 -48 -9 -60 -11 -11 -2 -32 -6 -46 -9 -14 -3 -36
-7 -50 -10 -14 -3 -36 -7 -50 -10 -24 -5 -48 -10 -100 -22 -14 -3 -34 -7 -45
-8 -11 -2 -20 -4 -20 -5 0 -2 -9 -4 -20 -6 -24 -3 -61 -11 -83 -18 -9 -3 -28
-7 -42 -10 -48 -10 -72 -15 -148 -36 -79 -22 -99 -27 -141 -36 -14 -3 -28 -7
-33 -10 -4 -3 -16 -7 -25 -9 -10 -1 -45 -11 -78 -21 -33 -10 -62 -18 -65 -19
-3 0 -11 -4 -17 -8 -7 -5 -13 -6 -13 -3 0 3 -23 -3 -52 -14 -28 -10 -55 -17
-60 -14 -4 3 -8 1 -8 -4 0 -5 -6 -9 -12 -9 -7 0 -49 -13 -93 -28 -44 -15 -84
-28 -90 -30 -9 -2 -23 -7 -65 -23 -8 -3 -18 -6 -22 -7 -5 -2 -10 -4 -13 -5 -3
-1 -9 -4 -15 -5 -5 -1 -12 -4 -15 -5 -3 -1 -9 -4 -15 -5 -5 -1 -12 -4 -15 -5
-3 -1 -8 -3 -12 -5 -5 -1 -21 -7 -36 -13 -16 -7 -30 -12 -32 -12 -2 0 -16 -5
-32 -12 -15 -6 -31 -12 -35 -13 -5 -2 -10 -4 -13 -5 -3 -1 -8 -3 -12 -4 -5 -1
-18 -7 -30 -14 -13 -7 -23 -10 -23 -6 0 3 -11 -1 -25 -10 -14 -9 -25 -14 -25
-11 0 3 -10 0 -22 -7 -13 -7 -26 -13 -30 -14 -5 -1 -11 -3 -15 -4 -5 -1 -11
-2 -15 -1 -5 0 -8 -4 -8 -9 0 -6 -4 -10 -9 -10 -5 0 -22 -5 -38 -12 -15 -6
-30 -12 -33 -13 -3 0 -15 -6 -26 -13 -12 -6 -24 -8 -28 -5 -3 3 -6 1 -6 -6 0
-7 -4 -10 -9 -6 -5 3 -12 1 -16 -5 -4 -6 -11 -8 -16 -5 -5 4 -9 1 -9 -6 0 -7
-3 -9 -7 -6 -3 4 -13 1 -21 -5 -7 -7 -24 -14 -35 -15 -12 -2 -23 -8 -25 -13
-2 -6 -8 -10 -14 -10 -5 0 -32 -11 -58 -24 -27 -13 -51 -22 -54 -19 -3 4 -6 1
-6 -6 0 -7 -4 -9 -10 -6 -6 3 -10 1 -10 -4 0 -6 -5 -11 -10 -11 -6 0 -48 -18
-92 -40 -45 -22 -88 -40 -95 -40 -7 0 -13 -4 -13 -9 0 -8 -37 -24 -52 -22 -5
1 -8 -4 -8 -11 0 -6 -3 -8 -6 -5 -4 3 -18 -2 -32 -13 -13 -11 -28 -17 -33 -14
-5 3 -9 0 -9 -6 0 -6 -5 -8 -10 -5 -5 3 -10 1 -10 -5 0 -6 -4 -8 -10 -5 -5 3
-10 1 -10 -5 0 -6 -4 -9 -9 -6 -5 4 -11 3 -13 -1 -4 -9 -189 -102 -202 -102
-5 1 -12 -3 -15 -8 -3 -5 -42 -27 -86 -48 -44 -22 -86 -45 -93 -52 -17 -17
-25 -17 -16 0 4 6 -4 2 -18 -11 -13 -12 -28 -19 -31 -15 -4 3 -7 1 -7 -6 0 -7
-4 -9 -10 -6 -5 3 -10 1 -10 -5 0 -6 -4 -8 -10 -5 -5 3 -10 1 -10 -5 0 -6 -5
-8 -10 -5 -6 3 -10 1 -10 -5 0 -6 -5 -8 -10 -5 -5 3 -10 1 -10 -6 0 -7 -3 -10
-6 -6 -9 9 -62 -52 -69 -80 -3 -13 -1 -32 5 -43 6 -11 8 -20 6 -20 -3 0 -1
-11 4 -25 5 -14 12 -36 15 -48 2 -12 9 -40 15 -62 6 -22 14 -51 17 -65 2 -14
7 -32 10 -40 7 -18 10 -28 16 -55 2 -11 7 -27 10 -35 4 -8 9 -26 11 -40 3 -14
5 -25 6 -25 1 0 4 -8 14 -50 2 -11 9 -32 15 -47 6 -16 8 -28 5 -28 -4 0 -1 -6
5 -14 6 -8 11 -18 10 -22 -1 -5 0 -11 1 -14 2 -6 8 -28 14 -55 2 -11 5 -22 6
-25 1 -3 2 -9 1 -14 -1 -4 3 -13 8 -20 5 -6 13 -25 16 -41 7 -35 7 -36 25 -95
8 -25 15 -49 16 -55 0 -5 4 -17 7 -25 6 -15 28 -94 33 -116 1 -6 10 -38 20
-70 9 -33 19 -66 21 -74 2 -8 5 -19 6 -25 8 -29 43 -66 75 -77 41 -14 105 -12
110 3 2 5 8 9 13 9 5 0 27 11 48 24 21 14 42 22 45 19 3 -4 6 -1 6 5 0 7 7 12
15 12 8 0 15 5 15 12 0 6 3 9 6 5 3 -3 28 8 55 24 28 16 54 29 59 29 6 0 10 4
10 10 0 5 3 9 8 8 4 -1 36 13 72 32 36 19 67 34 70 35 3 1 29 13 57 28 29 15
55 26 57 25 2 -2 12 5 22 14 11 9 21 16 24 16 3 -1 25 10 50 23 25 13 47 24
50 24 3 1 18 7 33 13 16 7 33 12 38 12 5 0 9 4 9 9 0 5 13 12 30 16 16 4 30
11 30 17 0 6 3 9 6 6 3 -3 42 11 87 31 106 49 120 55 130 53 4 -1 7 3 7 9 0 5
4 7 10 4 5 -3 10 -1 10 6 0 7 3 9 7 6 3 -4 17 0 30 8 13 9 23 13 23 10 0 -3
10 0 23 7 12 7 24 13 27 13 3 0 15 6 26 13 12 6 24 8 28 5 3 -3 6 0 6 7 0 7 3
10 6 7 4 -3 16 -1 28 5 11 7 26 13 31 14 6 1 24 8 40 15 17 7 32 13 35 14 6 1
119 43 140 52 8 3 21 7 27 9 7 1 43 14 80 27 94 35 107 40 116 42 4 2 8 3 10
5 1 1 10 3 20 5 10 2 26 7 35 11 9 4 19 8 22 9 18 4 158 47 170 52 8 3 20 7
25 8 6 2 30 9 55 16 25 7 48 13 53 15 4 1 8 2 10 4 1 1 9 3 17 5 8 1 42 10 75
19 33 10 65 18 70 19 6 2 16 6 23 10 6 5 12 6 12 3 0 -3 21 2 48 10 26 8 65
17 87 20 22 4 48 10 58 15 9 6 17 8 17 5 0 -3 15 0 33 5 17 6 41 12 52 14 11
3 31 7 45 10 14 4 36 8 50 11 14 2 36 7 50 10 14 3 36 8 50 10 14 3 59 11 100
19 116 22 320 56 370 61 25 2 56 6 70 9 14 2 48 7 75 11 28 3 61 7 75 9 14 2
57 7 95 10 39 4 81 8 95 10 22 4 70 7 255 21 333 23 884 23 1195 -1 25 -1 91
-6 147 -9 56 -4 110 -8 120 -10 27 -6 196 -21 211 -19 18 1 13 -94 -5 -102 -8
-2 -11 -9 -8 -15 3 -5 2 -10 -3 -10 -6 0 -25 -24 -43 -52 -19 -29 -40 -58 -49
-65 -8 -7 -12 -13 -7 -13 4 0 -7 -16 -24 -35 -18 -19 -37 -43 -43 -54 -26 -44
-72 -107 -83 -114 -7 -4 -13 -14 -13 -21 0 -7 -11 -23 -25 -36 -13 -12 -23
-26 -22 -29 1 -4 -10 -20 -25 -36 -16 -16 -28 -34 -28 -39 0 -5 -7 -16 -15
-25 -22 -24 -69 -84 -80 -103 -11 -18 -213 -295 -230 -315 -30 -36 -35 -43
-30 -43 5 0 -17 -29 -43 -56 -7 -8 -11 -14 -8 -14 3 0 -8 -15 -25 -32 -16 -18
-29 -38 -29 -46 0 -7 -7 -15 -15 -18 -8 -4 -15 -11 -15 -16 0 -6 -15 -24 -32
-42 -34 -32 -81 -46 -93 -26 -3 5 -11 8 -16 5 -5 -4 -9 -2 -9 3 0 4 -8 17 -17
28 -10 11 -27 35 -37 54 -11 19 -22 37 -25 40 -8 7 -26 56 -58 155 -26 81 -48
111 -90 121 -23 6 -214 -1 -263 -10 -14 -2 -52 -7 -85 -10 -33 -4 -76 -8 -95
-11 -19 -2 -57 -7 -85 -10 -27 -3 -66 -8 -85 -11 -35 -5 -79 -11 -135 -19 -38
-6 -134 -20 -195 -30 -14 -2 -45 -7 -70 -10 -25 -3 -52 -8 -60 -10 -8 -2 -35
-7 -60 -10 -25 -4 -67 -11 -95 -16 -27 -6 -61 -12 -75 -14 -14 -2 -34 -6 -45
-8 -11 -3 -40 -8 -65 -13 -25 -4 -47 -8 -50 -9 -3 -1 -25 -5 -50 -9 -71 -13
-149 -54 -133 -70 4 -3 2 -6 -4 -6 -23 0 -33 -61 -19 -115 6 -22 30 -65 37
-65 4 0 9 -10 13 -23 3 -12 15 -32 26 -45 11 -12 18 -22 15 -22 -7 0 71 -115
93 -138 6 -7 12 -17 12 -22 0 -5 11 -20 25 -34 14 -14 25 -28 25 -31 0 -4 6
-12 13 -19 6 -8 19 -24 27 -37 8 -12 26 -34 40 -48 14 -13 18 -21 10 -16 -8 4
-6 -1 5 -12 11 -11 31 -35 45 -53 14 -19 33 -42 43 -52 9 -10 17 -21 17 -24 0
-6 23 -33 77 -90 18 -19 29 -34 26 -34 -4 0 11 -17 33 -37 21 -20 32 -33 24
-28 -8 4 0 -6 18 -23 17 -17 32 -33 32 -36 0 -6 79 -93 147 -162 28 -28 50
-54 48 -56 -2 -2 23 -30 55 -62 33 -32 60 -62 60 -67 0 -6 5 -7 10 -4 6 3 10
1 10 -5 0 -25 568 -575 717 -695 14 -11 46 -39 72 -62 25 -24 49 -43 52 -43 4
0 21 -13 39 -30 18 -16 46 -34 64 -38 37 -10 105 1 116 18 4 6 11 11 15 10 4
-1 23 12 42 29 19 17 37 31 40 31 5 0 28 20 79 67 13 12 24 19 24 15 0 -4 10
3 23 15 52 52 88 83 95 83 4 0 15 8 23 18 9 9 38 35 64 57 78 65 136 117 191
170 29 28 56 52 60 55 5 3 8 9 6 13 -1 5 1 6 5 4 5 -3 52 39 107 93 54 54 100
99 102 99 2 1 5 4 7 7 1 3 49 53 107 112 96 98 193 203 278 300 18 20 42 47
54 60 13 12 19 22 15 22 -4 0 7 15 25 33 38 38 73 80 74 87 0 3 13 19 29 37
45 48 56 63 49 63 -4 0 5 9 20 21 14 11 26 26 26 34 0 7 7 16 16 19 8 3 12 10
9 16 -3 5 -2 10 2 10 11 0 93 105 93 119 0 6 4 11 8 11 5 0 23 23 41 50 18 28
38 56 44 63 20 21 79 107 73 107 -3 0 6 12 20 27 13 14 22 28 20 30 -2 3 5 16
17 30 12 13 22 28 21 31 0 4 7 15 16 25 9 9 23 30 31 45 8 15 16 29 19 32 14
13 40 60 33 60 -4 0 2 7 13 15 10 8 15 15 9 15 -6 0 -5 3 1 8 17 11 154 252
154 270 0 8 3 12 7 9 6 -7 37 51 35 65 -1 3 5 12 13 18 8 7 15 16 15 20 0 4
18 39 39 78 21 39 36 73 33 76 -3 3 0 6 7 6 7 0 9 5 6 10 -3 6 -1 10 4 10 6 0
11 4 11 9 0 5 23 58 52 118 28 59 53 116 55 126 2 10 10 25 18 33 8 9 16 22
16 30 2 20 3 24 29 79 13 28 25 52 25 55 0 3 6 15 13 26 6 12 8 24 5 28 -3 3
0 6 7 6 7 0 11 2 8 6 -3 3 9 41 28 85 18 43 31 79 28 79 -2 0 2 10 10 23 8 12
15 25 16 29 1 10 9 36 23 73 7 17 12 32 13 35 0 3 4 14 8 25 29 75 34 93 29
99 -4 3 -1 6 5 6 7 0 11 3 10 8 -1 4 4 24 11 45 7 21 14 44 15 50 2 7 6 19 9
27 13 33 45 139 64 208 7 27 10 38 16 52 3 8 9 29 13 45 4 17 8 35 10 40 2 6
5 19 8 30 3 11 13 52 23 90 16 60 20 96 14 140 -2 20 -57 72 -86 83 -28 10
-136 39 -178 48 -10 2 -27 6 -37 9 -10 3 -28 8 -39 10 -12 3 -31 7 -43 11 -13
3 -34 7 -47 10 -14 3 -29 8 -34 11 -7 4 -81 23 -152 38 -48 10 -68 15 -85 20
-10 3 -27 8 -37 10 -10 2 -49 11 -88 20 -77 18 -96 23 -139 31 -16 2 -32 7
-36 9 -4 3 -22 7 -41 9 -19 3 -45 7 -59 10 -50 11 -126 25 -160 30 -19 3 -46
8 -60 11 -13 2 -40 7 -60 10 -20 3 -47 7 -60 10 -35 7 -86 14 -204 30 -21 3
-50 7 -65 9 -14 3 -51 8 -81 11 -30 3 -66 8 -80 10 -105 16 -344 38 -535 50
-60 4 -130 9 -155 11 -56 6 -856 15 -861 10z"/>
</g>
</svg>
